<?xml version="1.0" standalone="no"?><!DOCTYPE svg PUBLIC "-//W3C//DTD SVG 1.1//EN" "http://www.w3.org/Graphics/SVG/1.1/DTD/svg11.dtd"><svg t="1481169785506" class="icon" style="" viewBox="0 0 1024 1024" version="1.1" xmlns="http://www.w3.org/2000/svg" p-id="1906" xmlns:xlink="http://www.w3.org/1999/xlink" width="200" height="200"><defs><style type="text/css"></style></defs><path d="M466.084808 216.379142 466.084808 216.379142c-8.392446 0-15.690224 7.297779-15.690224 15.690224l0 16.906521-16.906521 0c-8.392446 0-15.690224 7.297779-15.690224 15.690224l0 0c0 8.392446 7.297779 15.690224 15.690224 15.690224L450.394584 280.356337l0 16.906521c0 8.392446 7.297779 15.690224 15.690224 15.690224l0 0c8.392446 0 15.690224-7.297779 15.690224-15.690224l0-16.906521 16.906521 0c8.392446 0 15.690224-7.297779 15.690224-15.690224l0 0c0-8.392446-7.297779-15.690224-15.690224-15.690224l-16.906521 0 0-16.906521C480.558736 223.555292 474.598883 216.379142 466.084808 216.379142z" p-id="1907" fill="#1296db"></path><path d="M543.319634 666.408837c-2.432593-1.216296-6.081482-2.432593-9.608742-2.432593-7.297779 0-13.257632 3.648889-16.906521 8.392446l-51.935859 77.234826-51.935859-77.234826c-3.648889-4.865186-9.608742-8.392446-16.906521-8.392446-3.648889 0-6.081482 1.216296-9.608742 2.432593-4.865186 2.432593-8.392446 6.081482-8.392446 10.825039-1.216296 4.865186 0 9.608742 2.432593 13.257632l65.193491 97.790236 1.216296 1.216296 0 59.112009c0 10.825039 8.392446 19.339114 19.339114 19.339114l0 0c10.825039 0 19.339114-8.392446 19.339114-19.339114l1.216296-61.544601 63.977194-96.57394c2.432593-3.648889 3.648889-8.392446 2.432593-13.257632C551.833709 672.49032 548.18482 668.84143 543.319634 666.408837zM466.084808 863.205606 466.084808 863.205606 466.084808 863.205606 466.084808 863.205606zM466.084808 865.51657 466.084808 865.51657 466.084808 865.51657 466.084808 865.51657z" p-id="1908" fill="#1296db"></path><path d="M720.777289 871.598052c-78.451122 0-141.21202-63.977194-141.21202-141.21202s63.977194-141.21202 141.21202-141.21202S861.98931 651.934909 861.98931 730.386032 798.012115 871.598052 720.777289 871.598052zM720.777289 621.770757c-60.328305 0-108.615275 48.28697-108.615275 108.615275 0 60.328305 48.28697 108.615275 108.615275 108.615275s108.615275-48.28697 108.615275-108.615275C829.392564 670.057727 779.889298 621.770757 720.777289 621.770757z" p-id="1909" fill="#1296db"></path><path d="M779.889298 746.076256l-76.01853 0 0-74.802233c0-9.608742 7.297779-16.906521 16.906521-16.906521l0 0c9.608742 0 16.906521 7.297779 16.906521 16.906521l0 40.989191 43.421784 0c9.608742 0 16.906521 7.297779 16.906521 16.906521l0 0C796.795819 738.900107 789.49804 746.076256 779.889298 746.076256z" p-id="1910" fill="#1296db"></path><path d="M647.191353 413.054282c-6.081482-10.825039-15.690224-15.690224-21.771707-19.339114-2.432593-13.257632-6.081482-26.515263-12.041335-38.556598 6.081482-7.297779 9.608742-18.122817 9.608742-27.73156L622.987053 200.688918c0-24.08267-20.55541-44.638081-44.638081-44.638081L351.50968 156.050837c-24.08267 0-44.638081 20.55541-44.638081 44.638081l0 126.738092c0 10.825039 3.648889 20.55541 10.825039 28.947856-6.081482 16.906521-9.608742 31.380449-12.041335 38.556598-27.73156 15.690224-32.596745 45.854377-31.380449 61.544601 4.865186 42.205488 35.029338 63.977194 48.28697 71.153344 10.825039 20.55541 25.298967 44.638081 40.989191 56.679416l-7.297779-2.432593c-32.596745 1.216296-66.409787 15.690224-95.357643 38.556598-9.608742 7.297779-9.608742 21.771707-1.216296 30.164153l0 0c7.297779 7.297779 19.339114 8.392446 27.73156 1.216296 24.08267-19.339114 49.503266-31.380449 69.937047-32.596745l216.014253 0c0 0 0 0 1.216296 0l1.216296 0 2.432593 0 24.08267-35.029338-7.297779-1.216296c-2.432593 0-3.648889-1.216296-4.865186-1.216296-2.432593-1.216296-3.648889-1.216296-9.608742-1.216296l-19.339114 3.648889c21.771707-18.122817 37.461931-44.638081 44.638081-57.895712 26.515263-13.257632 38.556598-39.772895 40.989191-42.205488l1.216296-2.432593C659.232688 455.25977 658.016391 431.177099 647.191353 413.054282zM345.428198 200.688918c0-3.648889 2.432593-6.081482 6.081482-6.081482l226.839292 0c3.648889 0 6.081482 2.432593 6.081482 6.081482l0 126.738092c0 2.432593-1.216296 4.865186-3.648889 6.081482l-1.216296 1.216296-1.216296 0L351.50968 334.724789l0 0-2.432593-1.216296c-2.432593-1.216296-3.648889-3.648889-3.648889-6.081482L345.428198 200.688918zM613.378311 469.733698c-1.216296 3.648889-10.825039 19.339114-26.515263 25.298967l-7.297779 2.432593-3.648889 7.297779c0 1.216296-33.813042 73.585937-102.533793 80.883715-1.216296 0-3.648889 0-8.392446 0-21.771707 0-74.802233-8.392446-111.047868-82.100012l-3.648889-6.081482-6.081482-2.432593c-1.216296 0-28.947856-13.257632-32.596745-44.638081 0-2.432593 0-20.55541 16.906521-25.298967l10.825039-3.648889 1.216296-12.041335c0-1.216296 2.432593-16.906521 10.825039-38.556598l225.622996 0 0 0c4.865186 12.041335 7.297779 25.298967 9.608742 38.556598l2.432593 14.473928 14.473928 1.216296c0 0 6.081482 1.216296 9.608742 7.297779C619.338164 440.785842 618.121867 454.043473 613.378311 469.733698z" p-id="1911" fill="#1296db"></path><path d="M178.917211 765.41537l-1.216296 66.409787c0 10.825039 8.392446 19.339114 19.339114 19.339114l0 0c10.825039 0 19.339114-8.392446 19.339114-19.339114l1.216296-62.760898c0-3.648889 1.216296-6.081482 2.432593-8.392446 1.216296-6.081482 0-12.041335-4.865186-16.906521l0 0c-10.825039-10.825039-28.947856-6.081482-32.596745 8.392446C180.133508 755.806628 178.917211 760.550184 178.917211 765.41537z" p-id="1912" fill="#1296db"></path><path d="M225.987885 689.39684m-21.771707 0a17.9 17.9 0 1 0 43.543414 0 17.9 17.9 0 1 0-43.543414 0Z" p-id="1913" fill="#1296db"></path></svg>